<?xml version="1.0" encoding="UTF-8"?><svg xmlns="http://www.w3.org/2000/svg" viewBox="0 0 1920 1080" width="100%" height="100%" preserveAspectRatio="xMidYMid slice" role="img" aria-labelledby="title desc"><title id="title">Amaana Foundation header banner desktop</title><desc id="desc">Responsive desktop header banner with a lighter top-right decorative cluster moved higher and more to the right, using Amaana blue and gold branding.</desc><defs><linearGradient id="ivoryBase" x1="0" y1="0" x2="1" y2="1"><stop offset="0" stop-color="#fffdf9"/><stop offset="0.58" stop-color="#faf6ef"/><stop offset="1" stop-color="#f1eadf"/></linearGradient><linearGradient id="softIvory" x1="0" y1="0" x2="0" y2="1"><stop offset="0" stop-color="#fffefb"/><stop offset="1" stop-color="#f8f2e7"/></linearGradient><linearGradient id="blueBase" x1="0" y1="0" x2="1" y2="1"><stop offset="0" stop-color="#0b2d52"/><stop offset="0.55" stop-color="#11467a"/><stop offset="1" stop-color="#0a2440"/></linearGradient><linearGradient id="goldLine" x1="0" y1="0" x2="1" y2="0"><stop offset="0" stop-color="#be8c13"/><stop offset="0.52" stop-color="#e0b318"/><stop offset="1" stop-color="#f4d886"/></linearGradient><linearGradient id="blueLine" x1="0" y1="0" x2="1" y2="1"><stop offset="0" stop-color="#285f95"/><stop offset="1" stop-color="#5f8dbd"/></linearGradient><radialGradient id="leftGlow" cx="0.18" cy="0.28" r="0.95"><stop offset="0" stop-color="#ffffff" stop-opacity="0.96"/><stop offset="0.45" stop-color="#ffffff" stop-opacity="0.55"/><stop offset="1" stop-color="#ffffff" stop-opacity="0"/></radialGradient><radialGradient id="topRightBlueGlow" cx="0.96" cy="0.04" r="0.85"><stop offset="0" stop-color="#4b74aa" stop-opacity="0.20"/><stop offset="0.38" stop-color="#4b74aa" stop-opacity="0.07"/><stop offset="1" stop-color="#4b74aa" stop-opacity="0"/></radialGradient><radialGradient id="footerGlow" cx="0.76" cy="0.16" r="1.18"><stop offset="0" stop-color="#2d73b2" stop-opacity="0.44"/><stop offset="0.5" stop-color="#16456f" stop-opacity="0.18"/><stop offset="1" stop-color="#0a2440" stop-opacity="0"/></radialGradient><filter id="softShadow" x="-30%" y="-30%" width="160%" height="160%"><feDropShadow dx="0" dy="10" stdDeviation="11" flood-color="#18304b" flood-opacity="0.16"/></filter><filter id="tinyShadow" x="-30%" y="-30%" width="160%" height="160%"><feDropShadow dx="0" dy="3" stdDeviation="3" flood-color="#17314c" flood-opacity="0.12"/></filter><pattern id="subtleGeo" width="120" height="120" patternUnits="userSpaceOnUse"><g fill="none" stroke="#466FAA" stroke-opacity="0.08" stroke-width="1.05"><path d="M60 4 L74 25 L98 15 L88 39 L112 60 L88 81 L98 105 L74 95 L60 116 L46 95 L22 105 L32 81 L8 60 L32 39 L22 15 L46 25 Z"/><circle cx="60" cy="60" r="20"/></g><circle cx="60" cy="60" r="2.7" fill="#d8b555" fill-opacity="0.12"/></pattern><pattern id="heroGeo" width="148" height="148" patternUnits="userSpaceOnUse"><g fill="none" stroke="#d8b555" stroke-opacity="0.26" stroke-width="1.4"><path d="M74 4 L93 33 L126 20 L113 53 L144 74 L113 95 L126 128 L93 115 L74 144 L55 115 L22 128 L35 95 L4 74 L35 53 L22 20 L55 33 Z"/><circle cx="74" cy="74" r="29"/></g></pattern><pattern id="footerGeo" width="136" height="136" patternUnits="userSpaceOnUse"><rect width="136" height="136" fill="none"/><g fill="none" stroke="#d8b555" stroke-opacity="0.18" stroke-width="1.3"><path d="M68 5 L85 32 L116 20 L104 50 L131 68 L104 86 L116 116 L85 104 L68 131 L51 104 L20 116 L32 86 L5 68 L32 50 L20 20 L51 32 Z"/><circle cx="68" cy="68" r="26"/></g><circle cx="68" cy="68" r="3.6" fill="#e0b318" fill-opacity="0.58"/></pattern><symbol id="star8" viewBox="0 0 100 100"><path d="M50 1 L61 30 L85 15 L70 39 L99 50 L70 61 L85 85 L61 70 L50 99 L39 70 L15 85 L30 61 L1 50 L30 39 L15 15 L39 30 Z"/></symbol><symbol id="rosette" viewBox="0 0 120 120"><g fill="none" stroke="currentColor" stroke-width="4"><use href="#star8" x="10" y="10" width="100" height="100"/><circle cx="60" cy="60" r="28"/><path d="M60 31 L89 60 L60 89 L31 60 Z"/></g><circle cx="60" cy="60" r="7" fill="currentColor"/></symbol></defs><rect width="1920" height="1080" fill="url(#ivoryBase)"/><rect width="1920" height="1080" fill="url(#topRightBlueGlow)"/><rect width="1920" height="1080" fill="url(#subtleGeo)" opacity="0.14"/><g opacity="0.052"></g><g opacity="0.16"><rect x="1260" y="0" width="660" height="420" fill="url(#heroGeo)"/></g><g filter="url(#softShadow)"><path d="M960 -70 C1140 55 1250 95 1422 146 C1598 198 1735 244 1940 312" fill="none" stroke="#fffefb" stroke-width="128"/><path d="M960 -70 C1140 55 1250 95 1422 146 C1598 198 1735 244 1940 312" fill="none" stroke="url(#goldLine)" stroke-width="3.1" opacity="0.84"/><path d="M900 -30 C1085 115 1200 165 1375 228 C1565 296 1700 390 1945 505" fill="none" stroke="#fffdf8" stroke-width="92"/><path d="M900 -30 C1085 115 1200 165 1375 228 C1565 296 1700 390 1945 505" fill="none" stroke="#dbe5ef" stroke-width="17" opacity="0.55"/><path d="M900 -30 C1085 115 1200 165 1375 228 C1565 296 1700 390 1945 505" fill="none" stroke="url(#goldLine)" stroke-width="2.2" opacity="0.70"/></g><g color="#466FAA" opacity="0.78"><use href="#rosette" x="1508" y="34" width="112" height="112"/><use href="#rosette" x="1730" y="96" width="128" height="128"/><use href="#rosette" x="1810" y="340" width="98" height="98"/></g><g color="#E0B318" opacity="0.80"><use href="#rosette" x="1668" y="150" width="74" height="74"/><use href="#rosette" x="1856" y="118" width="80" height="80"/></g><g filter="url(#tinyShadow)"><path d="M1588 8 C1650 8 1690 50 1695 108 C1715 63 1756 35 1808 35 C1874 35 1920 85 1920 151 C1920 209 1883 250 1831 263 C1880 280 1912 324 1912 377 C1912 444 1865 492 1804 492 C1750 492 1712 463 1695 419 C1678 464 1638 492 1585 492 C1521 492 1474 444 1474 377 C1474 324 1508 280 1557 263 C1505 250 1468 208 1468 151 C1468 85 1518 8 1588 8 Z" fill="#fffdfa" stroke="url(#goldLine)" stroke-width="4.5"/></g><g filter="url(#tinyShadow)" opacity="0.78"><path d="M1412 52 C1450 52 1478 80 1478 118 C1478 156 1450 184 1412 184 C1374 184 1346 156 1346 118 C1346 80 1374 52 1412 52 Z" fill="#fffdf9" stroke="url(#goldLine)" stroke-width="2.3"/></g><linearGradient id="heroWash" x1="0" x2="1"><stop offset="0" stop-color="#ffffff" stop-opacity="0.86"/><stop offset="0.58" stop-color="#ffffff" stop-opacity="0.18"/><stop offset="1" stop-color="#ffffff" stop-opacity="0"/></linearGradient><rect width="1360" height="1080" fill="url(#heroWash)"/><rect width="1920" height="1080" fill="url(#leftGlow)" opacity="0.42"/></svg>